<?xml version="1.0" standalone="no"?><!DOCTYPE svg PUBLIC "-//W3C//DTD SVG 1.1//EN" "http://www.w3.org/Graphics/SVG/1.1/DTD/svg11.dtd"><svg t="1578387816645" class="icon" viewBox="0 0 1024 1024" version="1.1" xmlns="http://www.w3.org/2000/svg" p-id="4070" width="16" height="16" xmlns:xlink="http://www.w3.org/1999/xlink"><defs><style type="text/css"></style></defs><path d="M497.072245 815.353236m-38.786275-6.839066l0 0q-38.786275-6.839067-31.947208-45.625341l93.626823-530.984099q6.839067-38.786275 45.625342-31.947208l0 0q38.786275 6.839067 31.947207 45.625341l-93.626823 530.984099q-6.839067 38.786275-45.625341 31.947208Z" fill="#5E6D81" p-id="4071"></path><path d="M319.015385 677.809231a39.384615 39.384615 0 0 1-27.569231-11.421539l-126.424616-126.424615a39.384615 39.384615 0 0 1 0-55.926154L291.446154 357.612308a39.384615 39.384615 0 0 1 55.532308 0 39.384615 39.384615 0 0 1 0 55.926154L248.516923 512l98.461539 98.461538a39.384615 39.384615 0 0 1-27.963077 67.347693zM704.984615 677.809231a39.384615 39.384615 0 0 1-27.963077-67.347693l98.461539-98.461538-98.461539-98.461538a39.384615 39.384615 0 0 1 0-55.926154 39.384615 39.384615 0 0 1 55.532308 0l126.424616 126.424615a39.384615 39.384615 0 0 1 0 55.926154l-126.424616 126.424615a39.384615 39.384615 0 0 1-27.569231 11.421539z" fill="#5E6D81" p-id="4072"></path></svg>