<?xml version="1.0" encoding="UTF-8"?>
<!DOCTYPE svg PUBLIC "-//W3C//DTD SVG 1.1//EN" "http://www.w3.org/Graphics/SVG/1.1/DTD/svg11.dtd">
<!-- Creator: CorelDRAW -->
<svg xmlns="http://www.w3.org/2000/svg" xml:space="preserve" width="210mm" height="297mm" style="shape-rendering:geometricPrecision; text-rendering:geometricPrecision; image-rendering:optimizeQuality; fill-rule:evenodd; clip-rule:evenodd"
viewBox="0 0 210 297"
 xmlns:xlink="http://www.w3.org/1999/xlink">
 <defs>
  <style type="text/css">
   <![CDATA[
    .str0 {stroke:#332C2B;stroke-width:0.2}
    .fil0 {fill:#332C2B}
    .fil1 {fill:#FEFEFE}
   ]]>
  </style>
 </defs>
 <g id="图层_x0020_1">
  <metadata id="CorelCorpID_0Corel-Layer"/>
  <rect class="fil0 str0" x="57.8169" y="112.658" width="86.6987" height="86.6987" rx="11.8766" ry="11.8766"/>
  <g id="_38030912">
   <path id="_38032040" class="fil1" d="M101.166 118.003c7.7012,0 14.8658,2.2928 20.8529,6.2299 -4.9848,-2.9406 -10.7958,-4.6296 -17.0022,-4.6296 -18.5092,0 -33.5139,15.0048 -33.5139,33.514 0,18.5092 15.0047,33.5139 33.5139,33.5139 18.5093,0 33.5139,-15.0047 33.5139,-33.5139 0,-2.8727 -0.362,-5.6608 -1.0419,-8.3214 1.0929,3.5439 1.682,7.3091 1.682,11.2118 0,20.9896 -17.0152,38.0048 -38.0047,38.0048 -20.9895,0 -38.0047,-17.0152 -38.0047,-38.0048 0,-20.9895 17.0152,-38.0047 38.0047,-38.0047z"/>
   <path id="_38031296" class="fil1" d="M105.327 121.162c16.9243,0 30.6441,13.7197 30.6441,30.644 0,10.1425 -4.9286,19.1325 -12.5202,24.71 4.2336,-5.2551 6.7694,-11.9355 6.7694,-19.2092 0,-16.9243 -13.7197,-30.6441 -30.644,-30.6441 -6.7818,0 -13.0478,2.2046 -18.1238,5.9341 5.6169,-6.9724 14.2239,-11.4348 23.8745,-11.4348z"/>
   <path id="_38031272" class="fil1" d="M97.8216 137.393l-15.5881 33.9971 -1.0539 2.5212 30.6609 -0.9079c2.7863,-0.0825 4.6878,-2.1696 5.2205,-3.293l4.0918 -8.6273c-4.4013,-0.0933 -9.0382,-0.105 -13.4395,-0.1984l-4.5939 8.9019c-2.8341,1.084 -5.3881,1.888 -8.2222,2.9721l17.6505 -39.3798c-2.9682,0.5343 -7.7214,0.9229 -9.6747,1.7849l-5.0514 2.2292z"/>
  </g>
 </g>
</svg>
